<svg width="286" height="160" viewBox="0 0 286 160" fill="none" xmlns="http://www.w3.org/2000/svg">
<path d="M63.4891 13.2085L50.9676 13.2542V18.906V24.5425L52.0022 24.4663C52.5651 24.4206 53.6606 24.3445 54.4365 24.2835L55.8514 24.1921L55.7601 45.8851C55.6689 70.1982 55.6232 72.1634 55.2429 72.27C55.1059 72.3157 54.4974 72.4833 53.904 72.6509C53.2954 72.8337 52.3217 73.1079 51.7283 73.2755L50.6633 73.5954V79.2928C50.6633 82.431 50.709 85.0055 50.7698 85.0055C50.8155 85.0055 52.6108 84.4266 54.756 83.7259C62.1198 81.2884 70.4268 78.912 78.0949 77.023C80.2857 76.4898 82.218 76.0175 82.3853 75.9871C82.644 75.9414 82.7048 75.7738 82.7809 74.9512C82.9635 73.1231 82.933 56.5183 82.7505 56.5183C82.6592 56.5183 81.0617 56.762 79.2055 57.0667L75.8127 57.6151L75.7214 59.9154C75.6606 61.1646 75.6149 62.8251 75.6149 63.602V65.0035L73.6066 65.4148C72.496 65.6433 70.0769 66.1765 68.2512 66.5878C66.4102 66.9991 64.8279 67.3343 64.7062 67.3343C64.478 67.3343 64.4323 62.5052 64.6149 56.107L64.7062 52.4356L65.5582 52.268C66.0299 52.1766 68.4033 51.7958 70.8224 51.4149C73.2567 51.0341 75.4932 50.6837 75.8127 50.638L76.3756 50.5466V44.773V38.9841L75.6606 39.0755C73.4088 39.3345 65.1626 40.2181 64.904 40.2181C64.6149 40.2181 64.6149 40.081 64.7214 33.1801C64.7671 29.3107 64.8583 26.1116 64.904 26.0659C64.9648 25.9897 73.7435 25.4718 75.2802 25.4565L75.9192 25.4413V29.265V33.1039L76.7256 33.0125C77.1516 32.9668 78.7491 32.8297 80.2705 32.7383L83.0243 32.5402L83.1156 25.6089C83.1765 21.7852 83.2221 17.4131 83.2221 15.8745V13.1019L79.6163 13.1324C77.6232 13.1628 70.366 13.1933 63.4891 13.2085Z" fill="white"/>
<path d="M13.8452 20.5808V27.9083L15.0319 27.8169C15.6709 27.7559 16.6751 27.6798 17.2532 27.6188L18.303 27.5274L18.2117 29.9496C18.1509 31.2749 18.1052 44.1628 18.1052 58.5739V84.7913L16.0209 85.6444L13.9213 86.4975L13.8756 93.5203L13.8452 100.543L14.895 100.01C18.5921 98.1514 28.3445 93.764 34.2325 91.3266C38.6295 89.4986 39.0098 89.3158 40.1357 88.3713C42.4939 86.4061 44.1827 82.9023 44.7913 78.7283C44.9739 77.5096 45.0195 75.2854 45.05 68.6283C45.0804 59.6251 45.05 59.0462 44.3197 56.5174C43.7415 54.4608 42.5548 52.8003 41.2311 52.2062L40.5617 51.9015L40.9269 51.673C42.3874 50.759 43.7111 48.5958 44.3501 46.1279C44.9587 43.6753 45.0347 42.2585 45.0347 32.4784C45.0347 24.8463 44.9891 22.9573 44.8065 21.8452C44.0458 17.4122 42.0071 14.4416 39.1316 13.558C38.1883 13.2686 37.6862 13.2533 26.0015 13.2533H13.8452V20.5808ZM34.978 27.497C35.541 27.7864 35.9061 28.5938 36.0582 29.843C36.1343 30.3914 36.1343 33.5143 36.0887 36.7896L35.9822 42.7308L35.6018 43.4772C35.3888 43.9038 35.0541 44.3608 34.8411 44.5131C34.5824 44.6959 33.3349 44.9854 30.9006 45.3967C28.9379 45.7318 27.2339 46.006 27.097 46.006C26.9144 46.006 26.8992 44.8787 26.9905 36.9876C27.0361 32.0366 27.1122 27.954 27.1426 27.9235C27.1578 27.893 28.7553 27.7407 30.6723 27.5884C32.5894 27.436 34.2477 27.2989 34.3542 27.2837C34.4607 27.2837 34.7498 27.3751 34.978 27.497ZM35.1454 58.3454C35.2975 58.4216 35.5562 58.8177 35.7083 59.2138C35.9517 59.884 35.9822 60.4934 35.9822 66.3432C35.9822 75.5596 36.3017 74.9351 30.6876 76.8393L26.9296 78.1189L26.96 69.0243L27.0057 59.945L30.4289 59.0919C33.9587 58.1931 34.6585 58.0865 35.1454 58.3454Z" fill="white"/>
<path d="M88.6993 22.9579C88.6993 28.3049 88.6536 33.2407 88.608 33.9262L88.5015 35.1754L89.323 35.084C89.7795 35.0535 91.4074 34.9317 92.9593 34.8403L95.7739 34.6574L95.8196 29.5389L95.85 24.4203L96.4281 24.3137C96.7324 24.268 97.9344 24.2223 99.0907 24.2223H101.175L101.16 37.0492C101.145 44.1176 101.084 52.8314 101.038 56.4266L100.947 62.9771L98.5125 63.3275C97.1736 63.5103 95.9869 63.6626 95.8956 63.6778C95.7435 63.6778 95.6979 64.7442 95.6979 68.4765C95.6979 71.1119 95.7283 73.2751 95.7587 73.2751C95.8044 73.2751 97.0824 73.0771 98.619 72.8181C102.286 72.2392 108.341 71.3862 111.749 70.9901C113.255 70.8225 114.716 70.6397 114.99 70.594L115.477 70.5178V65.9629C115.477 63.4493 115.431 61.3928 115.37 61.3928C115.294 61.3928 114.259 61.4994 113.042 61.6213C111.825 61.7432 110.669 61.8498 110.486 61.8498H110.121L110.182 42.9751C110.197 32.5856 110.258 24.07 110.304 24.0242C110.349 23.9938 111.566 23.9176 113.012 23.8567L115.629 23.7653V28.701V33.652L118.641 33.5758C120.284 33.5301 121.927 33.4692 122.293 33.4235L122.932 33.3473V23.293V13.2539H105.815H88.6993V22.9579Z" fill="white"/>
<path d="M133.308 13.5424C131.588 14.1365 130.158 15.7361 129.428 17.8231L129.093 18.8133L129.048 40.9785C129.017 56.6084 129.063 63.3722 129.185 63.9359C129.611 66.0686 131.299 68.1861 133.079 68.8564C133.947 69.1916 134.084 69.1916 142.36 69.1611C146.97 69.1611 150.941 69.0849 151.184 69.024C152.63 68.6127 153.984 67.4244 154.745 65.9163C155.566 64.2863 155.642 63.616 155.642 56.6541V50.3169L153.482 50.2255C152.28 50.1645 150.256 50.1188 148.994 50.1188H146.666V54.3843V58.6498H142.33H137.994V41.207V23.7643H142.33H146.666V27.7099V31.6402L147.366 31.7468C147.761 31.7925 149.739 31.8382 151.778 31.8382H155.49V22.5456V13.253H151.839H148.187V15.797L148.172 18.3563L147.913 17.5946C147.32 15.8884 145.996 14.3193 144.566 13.6643C143.882 13.3444 143.623 13.3291 138.983 13.2987C134.57 13.253 134.038 13.2834 133.308 13.5424Z" fill="white"/>
<path d="M160.664 17.7471V22.2411H162.915H165.182L165.274 29.8885C165.334 34.1082 165.38 42.822 165.38 49.2506V60.9502L163.22 60.8436C162.018 60.7979 160.998 60.7065 160.937 60.676C160.861 60.6455 160.816 62.6564 160.816 65.17V69.7249L162.307 69.8315C164.604 69.9991 171.664 70.6694 174.554 70.9893C176 71.1569 177.323 71.294 177.521 71.294H177.856L177.825 66.6781L177.78 62.0775L176.182 61.8947C175.3 61.8033 174.569 61.7119 174.554 61.7119C174.524 61.6967 174.509 58.33 174.509 54.2016V46.7218L176.076 46.8285C178.601 46.9808 185.219 47.5444 185.432 47.6054C185.569 47.6511 185.615 49.342 185.615 55.3746V63.0677L185.28 62.9915C184.976 62.9306 182.663 62.6107 182.481 62.6107C182.45 62.6107 182.42 64.7282 182.42 67.3027V71.9947L186.421 72.6498C188.612 73.0154 192.385 73.6704 194.789 74.1274C197.193 74.5845 199.232 74.9501 199.308 74.9501C199.491 74.9501 199.506 71.035 199.354 67.4703L199.262 65.0938L197.071 64.7434C195.854 64.5606 194.85 64.3169 194.82 64.2255C194.789 64.1341 194.728 54.811 194.668 43.5227L194.576 22.9723L196.874 23.0332L199.156 23.0789V20.3369C199.156 18.8287 199.11 16.6198 199.049 15.4163L198.958 13.2531H190.605H182.268V17.8842V22.5001L182.74 22.6067C182.998 22.6524 183.728 22.6981 184.337 22.6981H185.463V29.1725V35.6468H184.976C184.094 35.6468 174.737 35.1594 174.554 35.0984C174.402 35.0527 174.356 33.6512 174.356 28.7002V22.363L175.954 22.4696L177.551 22.5762V17.9147V13.2531H169.108H160.664V17.7471Z" fill="white"/>
<path d="M202.655 18.1906C202.655 22.5475 202.685 23.1416 202.898 23.2178C203.035 23.2635 203.644 23.3092 204.268 23.3092H205.394L205.409 24.5583C205.424 25.2591 205.47 30.789 205.531 36.8673C205.637 47.4243 205.667 47.9575 205.972 49.0696C206.672 51.6745 208.239 53.8073 210.019 54.6299C210.506 54.8432 211.784 55.1783 212.955 55.3916C214.111 55.6049 215.07 55.7877 215.085 55.8181C215.116 55.8486 215.116 58.7735 215.1 62.3382L215.055 68.7973L213.153 68.386C212.103 68.1423 211.16 67.9443 211.069 67.9443C210.916 67.9443 210.871 69.0106 210.871 72.8191V77.6787L211.525 77.8462C215.192 78.7907 219.376 79.979 224.275 81.4414C226.085 81.9746 227.607 82.4164 227.652 82.4164C227.713 82.4164 227.759 80.0551 227.759 77.1912V71.9507L226.161 71.5394C225.279 71.3109 224.32 71.052 224.031 70.9758L223.499 70.8234V64.0749V57.3263L225.674 57.7681C227.105 58.0575 228.078 58.1946 228.55 58.1337C230.558 57.9204 232.08 56.2599 232.795 53.5178C233.084 52.3753 233.099 51.8726 233.084 38.4973V24.6802H234.377H235.67V18.9675V13.2549H228.672H221.673V18.6629V24.0556L222.86 24.1013L224.031 24.147L224.123 34.506C224.168 40.2035 224.199 44.8803 224.183 44.9107C224.153 44.9412 221.916 44.667 219.208 44.3014L214.294 43.6463L214.248 33.6682L214.218 23.69L215.435 23.7357L216.652 23.7967V18.5258V13.2549H209.654H202.655V18.1906Z" fill="white"/>
<path d="M247.857 13.5884C246.807 13.9845 245.225 15.5536 244.54 16.8332C243.886 18.0671 243.369 19.7429 243.049 21.5709C242.806 22.9724 242.791 24.9528 242.897 49.464L243.019 75.8489L241.817 75.4681C241.148 75.27 240.433 75.0568 240.204 75.0111L239.778 74.9044V80.7542V86.604L241.802 87.3504C243.628 88.0207 252.452 91.494 253.821 92.0729L254.384 92.3167L254.354 85.9794L254.308 79.6269L253.167 79.2308L252.026 78.8348L251.98 71.4768C251.95 64.8654 251.965 64.1341 252.193 64.1341C252.315 64.1341 254.049 64.5912 256.027 65.1396C258.005 65.7032 259.785 66.1907 259.968 66.2364L260.303 66.2973L260.348 74.0209C260.379 78.2559 260.379 81.7444 260.379 81.7749C260.363 81.7901 259.785 81.6073 259.085 81.3483C258.401 81.1046 257.807 80.8913 257.777 80.8913C257.747 80.8913 257.731 83.801 257.731 87.3657C257.731 90.9304 257.792 93.84 257.868 93.84C258.051 93.84 264.517 96.7954 268.731 98.791L272.337 100.512L272.307 93.5049L272.261 86.4974L270.709 85.8728L269.157 85.233L269.096 54.0798C269.051 25.3184 269.036 22.8201 268.792 21.6318C267.94 17.4578 266.556 14.8985 264.563 13.7864L263.741 13.3294L256.21 13.299C248.877 13.2685 248.664 13.2685 247.857 13.5884ZM255.966 27.4969C257.655 27.6187 259.314 27.7711 259.679 27.8168L260.318 27.8929V39.2574V50.6065L259.907 50.5151C259.664 50.4694 257.792 50.1038 255.723 49.7077L251.95 48.9765V41.6643C251.95 37.6426 251.904 32.7525 251.843 30.8026L251.752 27.2683H252.33C252.65 27.2683 254.293 27.375 255.966 27.4969Z" fill="white"/>
<path d="M114.001 84.486C113.438 84.7755 113.985 83.9224 105.191 97.8004C96.8996 110.886 97.6755 109.576 97.6755 110.536C97.6755 111.16 97.7516 111.435 98.0559 111.785C98.2689 112.044 100.46 113.522 102.925 115.091C107.656 118.092 108.128 118.305 109.086 117.909C109.345 117.802 109.817 117.422 110.121 117.056L110.684 116.386L111.962 117.665L113.24 118.96L112.844 119.539C111.445 121.596 111.612 124.292 113.286 126.135C113.985 126.912 115.416 127.613 116.541 127.75L117.424 127.841L117.515 128.451C117.865 130.599 119.949 132.518 122.262 132.808L123.144 132.914L123.266 133.554C123.51 135.001 124.62 136.388 126.111 137.088C126.857 137.439 127.146 137.484 128.439 137.469L129.9 137.454L130.25 138.2C130.645 139.038 131.725 140.12 132.623 140.592C133.521 141.049 134.936 141.232 135.985 141.049C137.233 140.805 138.085 140.303 139.287 139.099C139.865 138.505 140.428 138.018 140.519 138.018C140.626 138.018 141.158 138.216 141.706 138.459C144.323 139.648 147.138 140.227 149.1 139.983C150.622 139.8 151.671 139.343 152.706 138.399C153.208 137.942 153.665 137.606 153.695 137.652C153.878 137.82 156.342 137.393 157.088 137.043C158.488 136.403 159.537 135.001 159.826 133.402L159.933 132.838H160.983C161.652 132.838 162.306 132.732 162.854 132.518C164.345 131.97 165.623 130.203 165.927 128.283L166.019 127.704L167.038 127.628C168.833 127.491 170.522 126.379 171.252 124.84C171.724 123.85 171.739 122.388 171.298 121.108C171.131 120.605 171.039 120.133 171.085 120.042C171.146 119.95 172.013 119.158 173.032 118.29L174.873 116.706L175.284 117.422C175.786 118.305 176.395 118.671 177.308 118.671C177.992 118.671 179.62 117.894 186.878 114.055C187.943 113.491 188.353 112.897 188.353 111.892C188.353 111.237 187.79 110.079 182.481 99.796C174.371 84.1052 174.919 85.0801 174.097 84.6841C173.626 84.4555 173.261 84.3794 172.896 84.4403C172.606 84.486 170.203 85.6438 167.571 86.9996C164.102 88.7972 162.687 89.6046 162.458 89.9245C161.956 90.6405 161.926 91.5393 162.398 92.5599C162.717 93.2455 162.763 93.4587 162.611 93.5654C162.063 93.9005 158.366 93.5958 152.174 92.7123C144.186 91.5393 141.432 91.4631 138.161 92.2553C135.925 92.8037 133.14 94.4794 132.364 95.7438L132.03 96.2922L131.01 96.2008C128.728 95.9723 125.716 95.1497 124.833 94.5099C124.59 94.3271 124.62 94.2509 125.122 93.4283C125.792 92.3314 125.868 91.4326 125.335 90.6405C125.092 90.2749 123.601 89.239 120.452 87.2433C116.496 84.7298 115.811 84.3337 115.203 84.288C114.731 84.2575 114.32 84.3184 114.001 84.486ZM118.717 90.1073C120.452 91.1889 121.851 92.1334 121.866 92.1943C121.866 92.3771 108.021 114.177 107.9 114.177C107.687 114.177 101.494 110.216 101.479 110.079C101.479 109.866 115.355 88.0355 115.476 88.0812C115.537 88.1117 116.998 89.0105 118.717 90.1073ZM178.707 99.8569L184.687 111.419L181.34 113.156C179.483 114.101 177.916 114.862 177.84 114.832C177.658 114.771 165.958 92.1943 165.927 91.8897C165.912 91.6764 172.317 88.2031 172.591 88.264C172.667 88.2792 175.421 93.4892 178.707 99.8569ZM146.742 95.363C148.172 95.5153 151.002 95.8961 153.056 96.2008C158.107 96.932 161.013 97.1453 162.671 96.9168C163.356 96.8102 164.056 96.7188 164.223 96.7035C164.512 96.6578 164.878 97.3281 171.541 110.246L173.291 113.628L170.994 115.609C169.579 116.827 168.62 117.559 168.499 117.482C168.407 117.422 162.991 113.659 156.464 109.134C143.243 99.9331 144.125 100.436 141.584 100.573C139.287 100.695 138.344 101.289 136.746 103.62C135.483 105.463 134.266 106.651 133.003 107.276C132.121 107.718 131.832 107.779 130.843 107.779C130.219 107.763 129.595 107.702 129.458 107.626C129.245 107.489 129.656 106.743 132.288 102.386C133.977 99.5827 135.529 97.1758 135.727 97.0082C136.685 96.2465 138.587 95.5001 140.245 95.2106C141.539 94.9974 144.11 95.0583 146.742 95.363ZM123.662 97.709C124.712 98.2422 126.476 98.8058 127.952 99.0953C128.667 99.2324 129.428 99.3999 129.656 99.4456L130.082 99.5523L127.404 103.97C125.929 106.392 124.681 108.495 124.651 108.616C124.575 108.921 126.598 110.125 128.104 110.658C132.319 112.181 136.305 110.353 139.622 105.372C140.443 104.138 140.854 103.894 142.132 103.894L143.091 103.909L155.186 112.318C166.764 120.377 167.297 120.773 167.784 121.565C168.453 122.692 168.423 123.454 167.677 123.957C167.099 124.353 166.064 124.429 165.212 124.124C164.665 123.942 162.687 122.677 156.266 118.442C154.136 117.041 152.31 115.868 152.204 115.822C152.037 115.761 150.302 118.198 150.317 118.488C150.333 118.549 152.949 120.301 156.144 122.403C159.34 124.49 162.109 126.364 162.306 126.547C163.006 127.247 162.504 128.999 161.47 129.426C161.028 129.609 160.785 129.624 160.085 129.472C158.837 129.228 158.548 129.06 152.904 125.541C147.929 122.449 147.807 122.388 147.594 122.692C147.472 122.875 147.366 123.028 147.335 123.058C147.32 123.089 147.077 122.997 146.788 122.86L146.286 122.601L146.696 123.028L147.107 123.469L146.559 124.353C146.255 124.825 146.042 125.252 146.073 125.267C146.103 125.297 148.34 126.684 151.048 128.359C153.756 130.02 156.099 131.528 156.281 131.68C156.692 132.061 156.586 133.143 156.099 133.676C155.688 134.103 154.349 134.438 153.634 134.285C153.36 134.224 151.2 132.869 148.826 131.284C146.453 129.7 144.429 128.375 144.338 128.329C144.095 128.253 142.299 131.01 142.512 131.132C144.14 132.168 150.013 136.144 150.013 136.205C150.013 136.342 149.283 136.616 148.644 136.723C147.594 136.906 145.297 136.372 143.288 135.474L142.421 135.093L142.512 134.072C142.741 131.345 140.869 128.816 138.268 128.344C137.72 128.238 137.689 128.207 137.689 127.643C137.689 126.135 136.396 124.201 134.905 123.485C134.449 123.256 133.673 123.043 133.049 122.982C132.03 122.86 131.999 122.845 131.893 122.388C131.619 120.986 130.174 119.265 128.759 118.64C127.785 118.198 125.716 118.092 124.757 118.427C124.331 118.564 124.057 118.61 124.027 118.503C123.996 118.427 123.753 118.031 123.479 117.635C121.927 115.38 119.128 114.71 116.633 115.99L115.568 116.538L114.061 115.06C113.042 114.024 112.601 113.491 112.647 113.293C112.753 112.882 122.642 97.3434 122.795 97.3434C122.871 97.3434 123.266 97.5109 123.662 97.709ZM120.041 118.899C120.619 119.204 120.954 119.859 120.954 120.666C120.954 121.26 120.862 121.382 119.569 122.723C118.808 123.5 117.987 124.216 117.743 124.307C116.77 124.719 115.476 124.003 115.263 122.936C115.126 122.235 115.522 121.459 116.511 120.438C118.215 118.701 118.991 118.351 120.041 118.899ZM127.617 121.87C128.591 122.464 129.002 123.774 128.5 124.734C128.241 125.221 124.362 129.075 123.89 129.319C123.418 129.563 122.521 129.532 121.943 129.243C121.014 128.816 120.543 127.704 120.817 126.684C120.954 126.196 121.395 125.633 122.901 124.094C123.966 123.028 125.046 122.007 125.29 121.855C125.898 121.474 126.978 121.474 127.617 121.87ZM133.429 126.516C133.992 126.806 134.342 127.461 134.342 128.207C134.342 128.74 134.175 128.954 131.878 131.284C130.508 132.655 129.215 133.874 128.987 133.996C127.724 134.651 126.233 133.524 126.507 132.107C126.583 131.665 127.039 131.117 128.759 129.365C131.832 126.227 132.304 125.937 133.429 126.516ZM138.161 131.848C139.028 132.305 139.47 133.569 139.044 134.407C138.724 135.032 136.107 137.561 135.605 137.728C134.57 138.063 133.292 137.302 133.049 136.19C132.851 135.306 133.079 134.925 134.783 133.234C136.351 131.696 136.457 131.619 137.066 131.619C137.416 131.619 137.902 131.726 138.161 131.848Z" fill="white"/>
<path d="M0 55.7253V111.435L71.5685 135.322L143.122 159.209L214.386 135.459L285.65 111.71L285.741 84.9133C285.802 70.167 285.878 45.0464 285.924 29.0509L286 3.05176e-05H143H0V55.7253ZM279.671 31.4883C279.64 45.3816 279.564 68.0952 279.519 81.9579L279.412 107.155L211.404 129.823C174.007 142.284 143.259 152.491 143.091 152.475C142.924 152.475 112.084 142.208 74.5505 129.67L6.31397 106.865L6.26833 56.548L6.2379 6.2459H142.97H279.716L279.671 31.4883Z" fill="white"/>
</svg>
